<mxfile host="app.diagrams.net" agent="Mozilla/5.0 (Macintosh; Intel Mac OS X 10_15_7) AppleWebKit/537.36 (KHTML, like Gecko) Chrome/128.0.0.0 Safari/537.36" version="24.7.17">
  <diagram name="ページ1" id="IDqmQJQXYMVia_tHzmbd">
    <mxGraphModel dx="1893" dy="1025" grid="1" gridSize="10" guides="1" tooltips="1" connect="1" arrows="1" fold="1" page="1" pageScale="1" pageWidth="827" pageHeight="1169" math="0" shadow="0">
      <root>
        <mxCell id="0" />
        <mxCell id="1" parent="0" />
        <mxCell id="mpn5IJQhQNM9xVHvKm90-87" value="&lt;font style=&quot;font-size: 14px;&quot;&gt;Internet gateway&lt;/font&gt;" style="text;strokeColor=none;align=center;fillColor=none;html=1;verticalAlign=middle;whiteSpace=wrap;rounded=0;" vertex="1" parent="1">
          <mxGeometry x="411" y="1519" width="80" height="30" as="geometry" />
        </mxCell>
        <mxCell id="mpn5IJQhQNM9xVHvKm90-90" value="" style="sketch=0;points=[[0,0,0],[0.25,0,0],[0.5,0,0],[0.75,0,0],[1,0,0],[0,1,0],[0.25,1,0],[0.5,1,0],[0.75,1,0],[1,1,0],[0,0.25,0],[0,0.5,0],[0,0.75,0],[1,0.25,0],[1,0.5,0],[1,0.75,0]];outlineConnect=0;fontColor=#232F3E;fillColor=#8C4FFF;strokeColor=#ffffff;dashed=0;verticalLabelPosition=bottom;verticalAlign=top;align=center;html=1;fontSize=12;fontStyle=0;aspect=fixed;shape=mxgraph.aws4.resourceIcon;resIcon=mxgraph.aws4.cloudfront;" vertex="1" parent="1">
          <mxGeometry x="121" y="1440" width="78" height="78" as="geometry" />
        </mxCell>
        <mxCell id="mpn5IJQhQNM9xVHvKm90-91" value="&lt;font style=&quot;font-size: 14px;&quot;&gt;CloudFront&lt;/font&gt;" style="text;strokeColor=none;align=center;fillColor=none;html=1;verticalAlign=middle;whiteSpace=wrap;rounded=0;" vertex="1" parent="1">
          <mxGeometry x="119" y="1519.5" width="80" height="30" as="geometry" />
        </mxCell>
        <mxCell id="mpn5IJQhQNM9xVHvKm90-93" value="" style="sketch=0;points=[[0,0,0],[0.25,0,0],[0.5,0,0],[0.75,0,0],[1,0,0],[0,1,0],[0.25,1,0],[0.5,1,0],[0.75,1,0],[1,1,0],[0,0.25,0],[0,0.5,0],[0,0.75,0],[1,0.25,0],[1,0.5,0],[1,0.75,0]];outlineConnect=0;fontColor=#232F3E;fillColor=#8C4FFF;strokeColor=#ffffff;dashed=0;verticalLabelPosition=bottom;verticalAlign=top;align=center;html=1;fontSize=12;fontStyle=0;aspect=fixed;shape=mxgraph.aws4.resourceIcon;resIcon=mxgraph.aws4.route_53;" vertex="1" parent="1">
          <mxGeometry x="121" y="1240" width="78" height="78" as="geometry" />
        </mxCell>
        <mxCell id="mpn5IJQhQNM9xVHvKm90-94" value="" style="sketch=0;outlineConnect=0;fontColor=#232F3E;gradientColor=none;fillColor=#232F3D;strokeColor=none;dashed=0;verticalLabelPosition=bottom;verticalAlign=top;align=center;html=1;fontSize=12;fontStyle=0;aspect=fixed;pointerEvents=1;shape=mxgraph.aws4.user;" vertex="1" parent="1">
          <mxGeometry x="121" y="906" width="78" height="78" as="geometry" />
        </mxCell>
        <mxCell id="mpn5IJQhQNM9xVHvKm90-95" value="" style="edgeStyle=orthogonalEdgeStyle;html=1;endArrow=block;elbow=vertical;startArrow=block;startFill=1;endFill=1;strokeColor=#545B64;rounded=0;exitX=0.5;exitY=0;exitDx=0;exitDy=0;exitPerimeter=0;" edge="1" parent="1" source="mpn5IJQhQNM9xVHvKm90-90">
          <mxGeometry width="100" relative="1" as="geometry">
            <mxPoint x="180" y="1397.79" as="sourcePoint" />
            <mxPoint x="160" y="1350" as="targetPoint" />
            <Array as="points" />
          </mxGeometry>
        </mxCell>
        <mxCell id="mpn5IJQhQNM9xVHvKm90-97" value="&lt;font style=&quot;font-size: 14px;&quot;&gt;Route 53&lt;/font&gt;" style="text;strokeColor=none;align=center;fillColor=none;html=1;verticalAlign=middle;whiteSpace=wrap;rounded=0;" vertex="1" parent="1">
          <mxGeometry x="119" y="1318" width="80" height="30" as="geometry" />
        </mxCell>
        <mxCell id="mpn5IJQhQNM9xVHvKm90-98" value="" style="edgeStyle=orthogonalEdgeStyle;html=1;endArrow=block;elbow=vertical;startArrow=block;startFill=1;endFill=1;strokeColor=#545B64;rounded=0;entryX=0;entryY=0.5;entryDx=0;entryDy=0;entryPerimeter=0;" edge="1" parent="1" target="mpn5IJQhQNM9xVHvKm90-57">
          <mxGeometry width="100" relative="1" as="geometry">
            <mxPoint x="160" y="1560" as="sourcePoint" />
            <mxPoint x="230" y="1730" as="targetPoint" />
            <Array as="points">
              <mxPoint x="160" y="1640" />
              <mxPoint x="322" y="1640" />
            </Array>
          </mxGeometry>
        </mxCell>
        <mxCell id="mpn5IJQhQNM9xVHvKm90-103" value="" style="shape=image;html=1;verticalAlign=top;verticalLabelPosition=bottom;labelBackgroundColor=#ffffff;imageAspect=0;aspect=fixed;image=https://cdn4.iconfinder.com/data/icons/ionicons/512/icon-social-github-128.png" vertex="1" parent="1">
          <mxGeometry x="970" y="910" width="80" height="80" as="geometry" />
        </mxCell>
        <mxCell id="mpn5IJQhQNM9xVHvKm90-106" value="&lt;font style=&quot;font-size: 14px;&quot;&gt;Github Actions&lt;/font&gt;" style="text;strokeColor=none;align=center;fillColor=none;html=1;verticalAlign=middle;whiteSpace=wrap;rounded=0;" vertex="1" parent="1">
          <mxGeometry x="970" y="880" width="80" height="30" as="geometry" />
        </mxCell>
        <mxCell id="mpn5IJQhQNM9xVHvKm90-57" value="" style="sketch=0;points=[[0,0,0],[0.25,0,0],[0.5,0,0],[0.75,0,0],[1,0,0],[0,1,0],[0.25,1,0],[0.5,1,0],[0.75,1,0],[1,1,0],[0,0.25,0],[0,0.5,0],[0,0.75,0],[1,0.25,0],[1,0.5,0],[1,0.75,0]];outlineConnect=0;fontColor=#232F3E;fillColor=#7AA116;strokeColor=#ffffff;dashed=0;verticalLabelPosition=bottom;verticalAlign=top;align=center;html=1;fontSize=12;fontStyle=0;aspect=fixed;shape=mxgraph.aws4.resourceIcon;resIcon=mxgraph.aws4.s3;" vertex="1" parent="1">
          <mxGeometry x="322" y="1600" width="78" height="78" as="geometry" />
        </mxCell>
        <mxCell id="mpn5IJQhQNM9xVHvKm90-58" value="&lt;font style=&quot;font-size: 14px;&quot;&gt;S3 bucket for Wordpress static assets&lt;/font&gt;" style="text;strokeColor=none;align=center;fillColor=none;html=1;verticalAlign=middle;whiteSpace=wrap;rounded=0;" vertex="1" parent="1">
          <mxGeometry x="311.5" y="1678" width="99" height="83" as="geometry" />
        </mxCell>
        <mxCell id="mpn5IJQhQNM9xVHvKm90-66" value="" style="sketch=0;points=[[0,0,0],[0.25,0,0],[0.5,0,0],[0.75,0,0],[1,0,0],[0,1,0],[0.25,1,0],[0.5,1,0],[0.75,1,0],[1,1,0],[0,0.25,0],[0,0.5,0],[0,0.75,0],[1,0.25,0],[1,0.5,0],[1,0.75,0]];outlineConnect=0;fontColor=#232F3E;fillColor=#DD344C;strokeColor=#ffffff;dashed=0;verticalLabelPosition=bottom;verticalAlign=top;align=center;html=1;fontSize=12;fontStyle=0;aspect=fixed;shape=mxgraph.aws4.resourceIcon;resIcon=mxgraph.aws4.certificate_manager_3;" vertex="1" parent="1">
          <mxGeometry x="282" y="1251" width="79" height="79" as="geometry" />
        </mxCell>
        <mxCell id="mpn5IJQhQNM9xVHvKm90-67" value="&lt;font style=&quot;font-size: 14px;&quot;&gt;ACM&lt;/font&gt;" style="text;strokeColor=none;align=center;fillColor=none;html=1;verticalAlign=middle;whiteSpace=wrap;rounded=0;" vertex="1" parent="1">
          <mxGeometry x="282" y="1328" width="80" height="30" as="geometry" />
        </mxCell>
        <mxCell id="mpn5IJQhQNM9xVHvKm90-49" value="Public subnet" style="points=[[0,0],[0.25,0],[0.5,0],[0.75,0],[1,0],[1,0.25],[1,0.5],[1,0.75],[1,1],[0.75,1],[0.5,1],[0.25,1],[0,1],[0,0.75],[0,0.5],[0,0.25]];outlineConnect=0;gradientColor=none;html=1;whiteSpace=wrap;fontSize=12;fontStyle=0;container=1;pointerEvents=0;collapsible=0;recursiveResize=0;shape=mxgraph.aws4.group;grIcon=mxgraph.aws4.group_security_group;grStroke=0;strokeColor=#7AA116;fillColor=#F2F6E8;verticalAlign=top;align=left;spacingLeft=30;fontColor=#248814;dashed=0;" vertex="1" parent="1">
          <mxGeometry x="550" y="1370" width="240" height="241" as="geometry" />
        </mxCell>
        <mxCell id="mpn5IJQhQNM9xVHvKm90-69" value="Private subnet" style="points=[[0,0],[0.25,0],[0.5,0],[0.75,0],[1,0],[1,0.25],[1,0.5],[1,0.75],[1,1],[0.75,1],[0.5,1],[0.25,1],[0,1],[0,0.75],[0,0.5],[0,0.25]];outlineConnect=0;gradientColor=none;html=1;whiteSpace=wrap;fontSize=12;fontStyle=0;container=1;pointerEvents=0;collapsible=0;recursiveResize=0;shape=mxgraph.aws4.group;grIcon=mxgraph.aws4.group_security_group;grStroke=0;strokeColor=#00A4A6;fillColor=#E6F6F7;verticalAlign=top;align=left;spacingLeft=30;fontColor=#147EBA;dashed=0;" vertex="1" parent="1">
          <mxGeometry x="880" y="1370" width="250" height="240" as="geometry" />
        </mxCell>
        <mxCell id="mpn5IJQhQNM9xVHvKm90-71" value="" style="sketch=0;points=[[0,0,0],[0.25,0,0],[0.5,0,0],[0.75,0,0],[1,0,0],[0,1,0],[0.25,1,0],[0.5,1,0],[0.75,1,0],[1,1,0],[0,0.25,0],[0,0.5,0],[0,0.75,0],[1,0.25,0],[1,0.5,0],[1,0.75,0]];outlineConnect=0;fontColor=#232F3E;fillColor=#ED7100;strokeColor=#ffffff;dashed=0;verticalLabelPosition=bottom;verticalAlign=top;align=center;html=1;fontSize=12;fontStyle=0;aspect=fixed;shape=mxgraph.aws4.resourceIcon;resIcon=mxgraph.aws4.ec2;" vertex="1" parent="mpn5IJQhQNM9xVHvKm90-69">
          <mxGeometry x="90" y="71" width="78" height="78" as="geometry" />
        </mxCell>
        <mxCell id="mpn5IJQhQNM9xVHvKm90-72" value="&lt;font style=&quot;font-size: 14px;&quot;&gt;EC2&lt;/font&gt;&lt;div&gt;&lt;font style=&quot;font-size: 14px;&quot;&gt;(Nginx)&lt;/font&gt;&lt;/div&gt;" style="text;strokeColor=none;align=center;fillColor=none;html=1;verticalAlign=middle;whiteSpace=wrap;rounded=0;" vertex="1" parent="mpn5IJQhQNM9xVHvKm90-69">
          <mxGeometry x="88" y="152" width="80" height="38" as="geometry" />
        </mxCell>
        <mxCell id="mpn5IJQhQNM9xVHvKm90-113" value="" style="sketch=0;outlineConnect=0;fontColor=#232F3E;gradientColor=none;fillColor=#8C4FFF;strokeColor=none;dashed=0;verticalLabelPosition=bottom;verticalAlign=top;align=center;html=1;fontSize=12;fontStyle=0;aspect=fixed;pointerEvents=1;shape=mxgraph.aws4.endpoints;" vertex="1" parent="1">
          <mxGeometry x="1260" y="1440" width="78" height="78" as="geometry" />
        </mxCell>
        <mxCell id="mpn5IJQhQNM9xVHvKm90-78" value="" style="sketch=0;outlineConnect=0;fontColor=#232F3E;gradientColor=none;fillColor=#8C4FFF;strokeColor=none;dashed=0;verticalLabelPosition=bottom;verticalAlign=top;align=center;html=1;fontSize=12;fontStyle=0;aspect=fixed;pointerEvents=1;shape=mxgraph.aws4.application_load_balancer;" vertex="1" parent="1">
          <mxGeometry x="640" y="1444.5" width="75" height="75" as="geometry" />
        </mxCell>
        <mxCell id="mpn5IJQhQNM9xVHvKm90-82" value="" style="edgeStyle=orthogonalEdgeStyle;html=1;endArrow=block;elbow=vertical;startArrow=block;startFill=1;endFill=1;strokeColor=#545B64;rounded=0;" edge="1" parent="1" source="mpn5IJQhQNM9xVHvKm90-111" target="mpn5IJQhQNM9xVHvKm90-78">
          <mxGeometry width="100" relative="1" as="geometry">
            <mxPoint x="520" y="1480" as="sourcePoint" />
            <mxPoint x="641" y="1289.08" as="targetPoint" />
            <Array as="points">
              <mxPoint x="600" y="1480" />
              <mxPoint x="600" y="1480" />
            </Array>
          </mxGeometry>
        </mxCell>
        <mxCell id="mpn5IJQhQNM9xVHvKm90-84" value="" style="edgeStyle=orthogonalEdgeStyle;html=1;endArrow=block;elbow=vertical;startArrow=block;startFill=1;endFill=1;strokeColor=#545B64;rounded=0;entryX=0;entryY=0.5;entryDx=0;entryDy=0;entryPerimeter=0;" edge="1" parent="1" source="mpn5IJQhQNM9xVHvKm90-78" target="mpn5IJQhQNM9xVHvKm90-71">
          <mxGeometry width="100" relative="1" as="geometry">
            <mxPoint x="760" y="1500" as="sourcePoint" />
            <mxPoint x="1000" y="1729" as="targetPoint" />
            <Array as="points">
              <mxPoint x="730" y="1480" />
              <mxPoint x="730" y="1480" />
            </Array>
          </mxGeometry>
        </mxCell>
        <mxCell id="mpn5IJQhQNM9xVHvKm90-108" value="" style="edgeStyle=orthogonalEdgeStyle;html=1;endArrow=block;elbow=vertical;startArrow=none;endFill=1;strokeColor=#545B64;rounded=0;exitX=1;exitY=0.5;exitDx=0;exitDy=0;exitPerimeter=0;" edge="1" parent="1" source="mpn5IJQhQNM9xVHvKm90-71">
          <mxGeometry width="100" relative="1" as="geometry">
            <mxPoint x="1089.6429999999996" y="1480.4899999999998" as="sourcePoint" />
            <mxPoint x="1400" y="1480" as="targetPoint" />
            <Array as="points" />
          </mxGeometry>
        </mxCell>
        <mxCell id="mpn5IJQhQNM9xVHvKm90-86" value="&lt;font style=&quot;font-size: 14px;&quot;&gt;ALB&lt;/font&gt;" style="text;strokeColor=none;align=center;fillColor=none;html=1;verticalAlign=middle;whiteSpace=wrap;rounded=0;" vertex="1" parent="1">
          <mxGeometry x="641" y="1519" width="80" height="30" as="geometry" />
        </mxCell>
        <mxCell id="mpn5IJQhQNM9xVHvKm90-114" value="VPC" style="points=[[0,0],[0.25,0],[0.5,0],[0.75,0],[1,0],[1,0.25],[1,0.5],[1,0.75],[1,1],[0.75,1],[0.5,1],[0.25,1],[0,1],[0,0.75],[0,0.5],[0,0.25]];outlineConnect=0;gradientColor=none;html=1;whiteSpace=wrap;fontSize=12;fontStyle=0;container=1;pointerEvents=0;collapsible=0;recursiveResize=0;shape=mxgraph.aws4.group;grIcon=mxgraph.aws4.group_vpc2;strokeColor=#8C4FFF;fillColor=none;verticalAlign=top;align=left;spacingLeft=30;fontColor=#AAB7B8;dashed=0;fontFamily=Helvetica;labelBackgroundColor=default;" vertex="1" parent="1">
          <mxGeometry x="460" y="1280" width="840" height="360" as="geometry" />
        </mxCell>
        <mxCell id="mpn5IJQhQNM9xVHvKm90-111" value="" style="sketch=0;outlineConnect=0;fontColor=#232F3E;gradientColor=none;fillColor=#8C4FFF;strokeColor=none;dashed=0;verticalLabelPosition=bottom;verticalAlign=top;align=center;html=1;fontSize=12;fontStyle=0;aspect=fixed;pointerEvents=1;shape=mxgraph.aws4.internet_gateway;" vertex="1" parent="1">
          <mxGeometry x="418" y="1440" width="80" height="80" as="geometry" />
        </mxCell>
        <mxCell id="mpn5IJQhQNM9xVHvKm90-115" value="Region" style="points=[[0,0],[0.25,0],[0.5,0],[0.75,0],[1,0],[1,0.25],[1,0.5],[1,0.75],[1,1],[0.75,1],[0.5,1],[0.25,1],[0,1],[0,0.75],[0,0.5],[0,0.25]];outlineConnect=0;gradientColor=none;html=1;whiteSpace=wrap;fontSize=12;fontStyle=0;container=0;pointerEvents=0;collapsible=0;recursiveResize=0;shape=mxgraph.aws4.group;grIcon=mxgraph.aws4.group_region;strokeColor=#00A4A6;fillColor=none;verticalAlign=top;align=left;spacingLeft=30;fontColor=#147EBA;dashed=1;fontFamily=Helvetica;labelBackgroundColor=default;" vertex="1" parent="1">
          <mxGeometry x="250" y="1200" width="1270" height="560" as="geometry" />
        </mxCell>
        <mxCell id="mpn5IJQhQNM9xVHvKm90-119" value="" style="edgeStyle=orthogonalEdgeStyle;html=1;endArrow=block;elbow=vertical;startArrow=block;startFill=1;endFill=1;strokeColor=#545B64;rounded=0;" edge="1" parent="1" target="mpn5IJQhQNM9xVHvKm90-111">
          <mxGeometry width="100" relative="1" as="geometry">
            <mxPoint x="199" y="1479.76" as="sourcePoint" />
            <mxPoint x="341" y="1479.76" as="targetPoint" />
            <Array as="points" />
          </mxGeometry>
        </mxCell>
        <mxCell id="mpn5IJQhQNM9xVHvKm90-118" value="" style="outlineConnect=0;dashed=0;verticalLabelPosition=bottom;verticalAlign=top;align=center;html=1;shape=mxgraph.aws3.internet_2;fillColor=#D2D3D3;gradientColor=none;fontFamily=Helvetica;fontSize=11;fontColor=default;labelBackgroundColor=default;" vertex="1" parent="1">
          <mxGeometry x="120.25" y="1060" width="79.5" height="54" as="geometry" />
        </mxCell>
        <mxCell id="mpn5IJQhQNM9xVHvKm90-120" value="" style="edgeStyle=orthogonalEdgeStyle;html=1;endArrow=block;elbow=vertical;startArrow=block;startFill=1;endFill=1;strokeColor=#545B64;rounded=0;" edge="1" parent="1" source="mpn5IJQhQNM9xVHvKm90-93">
          <mxGeometry width="100" relative="1" as="geometry">
            <mxPoint x="159" y="1170" as="sourcePoint" />
            <mxPoint x="160" y="1120" as="targetPoint" />
            <Array as="points" />
          </mxGeometry>
        </mxCell>
        <mxCell id="mpn5IJQhQNM9xVHvKm90-121" value="" style="edgeStyle=orthogonalEdgeStyle;html=1;endArrow=block;elbow=vertical;startArrow=block;startFill=1;endFill=1;strokeColor=#545B64;rounded=0;" edge="1" parent="1" target="mpn5IJQhQNM9xVHvKm90-94">
          <mxGeometry width="100" relative="1" as="geometry">
            <mxPoint x="160" y="1060" as="sourcePoint" />
            <mxPoint x="159.74" y="984" as="targetPoint" />
            <Array as="points" />
          </mxGeometry>
        </mxCell>
        <mxCell id="mpn5IJQhQNM9xVHvKm90-123" value="&lt;font style=&quot;font-size: 14px;&quot;&gt;Internet&lt;/font&gt;" style="text;strokeColor=none;align=center;fillColor=none;html=1;verticalAlign=middle;whiteSpace=wrap;rounded=0;" vertex="1" parent="1">
          <mxGeometry x="70" y="1114" width="80" height="30" as="geometry" />
        </mxCell>
        <mxCell id="mpn5IJQhQNM9xVHvKm90-125" value="&lt;font style=&quot;font-size: 14px;&quot;&gt;User&lt;/font&gt;" style="text;strokeColor=none;align=center;fillColor=none;html=1;verticalAlign=middle;whiteSpace=wrap;rounded=0;" vertex="1" parent="1">
          <mxGeometry x="80" y="985" width="80" height="30" as="geometry" />
        </mxCell>
        <mxCell id="mpn5IJQhQNM9xVHvKm90-104" value="" style="edgeStyle=orthogonalEdgeStyle;html=1;endArrow=block;elbow=vertical;startArrow=none;endFill=1;strokeColor=#545B64;rounded=0;" edge="1" parent="1">
          <mxGeometry width="100" relative="1" as="geometry">
            <mxPoint x="1010" y="990" as="sourcePoint" />
            <mxPoint x="1010.4444444444443" y="1440" as="targetPoint" />
          </mxGeometry>
        </mxCell>
        <mxCell id="mpn5IJQhQNM9xVHvKm90-105" value="&lt;font style=&quot;font-size: 14px;&quot;&gt;デプロイ&lt;/font&gt;" style="edgeLabel;html=1;align=center;verticalAlign=middle;resizable=0;points=[];" vertex="1" connectable="0" parent="mpn5IJQhQNM9xVHvKm90-104">
          <mxGeometry x="-0.4032" y="-3" relative="1" as="geometry">
            <mxPoint y="1" as="offset" />
          </mxGeometry>
        </mxCell>
        <mxCell id="mpn5IJQhQNM9xVHvKm90-128" value="" style="edgeStyle=orthogonalEdgeStyle;html=1;endArrow=block;elbow=vertical;startArrow=none;endFill=1;strokeColor=#545B64;rounded=0;exitX=0.5;exitY=0;exitDx=0;exitDy=0;exitPerimeter=0;entryX=1;entryY=0.7;entryDx=0;entryDy=0;entryPerimeter=0;" edge="1" parent="1" source="mpn5IJQhQNM9xVHvKm90-126" target="mpn5IJQhQNM9xVHvKm90-118">
          <mxGeometry width="100" relative="1" as="geometry">
            <mxPoint x="900" y="1050" as="sourcePoint" />
            <mxPoint x="1362" y="1050" as="targetPoint" />
            <Array as="points" />
          </mxGeometry>
        </mxCell>
        <mxCell id="mpn5IJQhQNM9xVHvKm90-126" value="" style="sketch=0;points=[[0,0,0],[0.25,0,0],[0.5,0,0],[0.75,0,0],[1,0,0],[0,1,0],[0.25,1,0],[0.5,1,0],[0.75,1,0],[1,1,0],[0,0.25,0],[0,0.5,0],[0,0.75,0],[1,0.25,0],[1,0.5,0],[1,0.75,0]];outlineConnect=0;fontColor=#232F3E;fillColor=#7AA116;strokeColor=#ffffff;dashed=0;verticalLabelPosition=bottom;verticalAlign=top;align=center;html=1;fontSize=12;fontStyle=0;aspect=fixed;shape=mxgraph.aws4.resourceIcon;resIcon=mxgraph.aws4.s3;fontFamily=Helvetica;labelBackgroundColor=default;" vertex="1" parent="1">
          <mxGeometry x="1400" y="1444.5" width="78" height="78" as="geometry" />
        </mxCell>
        <mxCell id="mpn5IJQhQNM9xVHvKm90-127" value="&lt;span style=&quot;font-size: 14px;&quot;&gt;S3 for install Nginx&lt;/span&gt;" style="text;strokeColor=none;align=center;fillColor=none;html=1;verticalAlign=middle;whiteSpace=wrap;rounded=0;" vertex="1" parent="1">
          <mxGeometry x="1400" y="1530" width="80" height="38" as="geometry" />
        </mxCell>
        <mxCell id="mpn5IJQhQNM9xVHvKm90-130" value="" style="edgeStyle=orthogonalEdgeStyle;html=1;endArrow=block;elbow=vertical;startArrow=none;endFill=1;strokeColor=#545B64;rounded=0;exitX=0.5;exitY=1;exitDx=0;exitDy=0;" edge="1" parent="1" source="mpn5IJQhQNM9xVHvKm90-67" target="mpn5IJQhQNM9xVHvKm90-78">
          <mxGeometry width="100" relative="1" as="geometry">
            <mxPoint x="310" y="1240" as="sourcePoint" />
            <mxPoint x="772" y="1240" as="targetPoint" />
            <Array as="points">
              <mxPoint x="322" y="1430" />
              <mxPoint x="678" y="1430" />
            </Array>
          </mxGeometry>
        </mxCell>
      </root>
    </mxGraphModel>
  </diagram>
</mxfile>
